<?xml version="1.0" encoding="UTF-8"?> <svg xmlns="http://www.w3.org/2000/svg" width="20" height="20" viewBox="0 0 20 20" fill="none"> <path fill-rule="evenodd" clip-rule="evenodd" d="M10 1C14.9706 1 19 5.02944 19 10C19 14.9706 14.9706 19 10 19C5.02944 19 1 14.9706 1 10C1 5.02944 5.02944 1 10 1ZM8.18037 14.4122L7.79808 14.6731C7.22739 15.0553 6.63961 15.4204 6.03472 15.7684C7.16036 16.5451 8.52705 17 10 17C10.7216 17 11.4177 16.8908 12.0727 16.6881C10.8304 16.2463 9.48344 15.4709 8.18037 14.4122ZM13.0987 10.0997L12.9808 10.2308C12.7019 10.5353 12.4167 10.8333 12.125 11.125C11.4559 11.7941 10.753 12.4295 10.0164 13.0312C12.1164 14.7088 14.0719 15.474 14.773 14.773C15.4647 14.0813 14.729 12.1684 13.0987 10.0997ZM3.31113 7.92727L3.25005 8.13912C3.08706 8.73167 3 9.35567 3 10C3 11.5594 3.50989 12.9997 4.37204 14.1632L4 14.375C4.86163 13.8963 5.68942 13.3838 6.48337 12.8374C4.96032 11.2329 3.87019 9.49659 3.31113 7.92727ZM15.9707 6.34422L15.6731 6.79808C15.315 7.33279 14.9418 7.85248 14.5537 8.35716C15.5399 9.60417 16.2662 10.8862 16.6889 12.0727C16.8908 11.4177 17 10.7216 17 10C17 8.66016 16.6236 7.40824 15.9707 6.34422ZM5.22703 5.22703C4.36067 6.09339 5.73348 8.87545 8.29887 11.48C9.06997 10.8569 9.80327 10.1967 10.5 9.5C10.8635 9.13652 11.217 8.76309 11.5606 8.37971L11.591 8.40901C8.95495 5.77297 6.10571 4.34835 5.22703 5.22703ZM10 3C9.27841 3 8.58231 3.10919 7.92734 3.31194C9.54961 3.88907 11.3504 5.0346 12.9988 6.63744C13.5031 5.9794 13.981 5.29384 14.4334 4.58278C13.2257 3.59336 11.6822 3 10 3Z" fill="#999999"></path> </svg> 