<?xml version="1.0" encoding="UTF-8"?> <svg xmlns="http://www.w3.org/2000/svg" width="32" height="32" viewBox="0 0 32 32" fill="none"> <path d="M25.4746 10.3149C24.9775 10.5554 24.7695 11.1536 25.01 11.6504C25.667 13.0076 26 14.4705 26 16C26 21.5139 21.5139 26 16 26C10.4861 26 6 21.5139 6 16C6 10.4861 10.4861 6 16 6C18.2849 6 20.4314 6.74609 22.208 8.15747C22.6389 8.50146 23.269 8.42944 23.613 7.99707C23.957 7.56494 23.885 6.93555 23.4524 6.59204C21.3491 4.92041 18.7024 4 16 4C9.38354 4 4 9.38354 4 16C4 22.6165 9.38354 28 16 28C22.6165 28 28 22.6165 28 16C28 14.1665 27.5996 12.4094 26.8101 10.7795C26.5701 10.2815 25.97 10.074 25.4746 10.3149Z" fill="#69D9E2"></path> <path d="M16.0001 9.5C15.4481 9.5 15.0001 9.948 15.0001 10.5V17.5C15.0001 18.052 15.4481 18.5 16.0001 18.5H21.0001C21.5521 18.5 22.0001 18.052 22.0001 17.5C22.0001 16.948 21.5521 16.5 21.0001 16.5H17.0001V10.5C17.0001 9.948 16.5521 9.5 16.0001 9.5Z" fill="#69D9E2"></path> </svg> 