<?xml version="1.0" encoding="UTF-8"?> <svg xmlns="http://www.w3.org/2000/svg" width="32" height="32" viewBox="0 0 32 32" fill="none"> <mask id="path-1-outside-1" maskUnits="userSpaceOnUse" x="3" y="3" width="26" height="26" fill="black"> <rect fill="white" x="3" y="3" width="26" height="26"></rect> <path fill-rule="evenodd" clip-rule="evenodd" d="M24.3727 7.62203C26.2903 9.53674 27.5382 11.9428 27.9896 14.5869C28.0556 14.9567 27.8019 15.3113 27.4316 15.367C27.4275 15.3675 27.4235 15.368 27.4195 15.3685C27.3838 15.373 27.3514 15.3771 27.3149 15.3771C26.9852 15.3771 26.6961 15.1441 26.6403 14.8098C26.2395 12.4493 25.1235 10.2965 23.4089 8.58445C21.6943 6.87742 19.5384 5.75798 17.1745 5.35781C16.7991 5.29196 16.5506 4.94245 16.6114 4.56762C16.6774 4.19784 17.0274 3.94458 17.3977 4.01043C20.0457 4.46124 22.4552 5.70732 24.3727 7.62203ZM22.9778 18.8671C22.4857 18.3555 21.8922 18.082 21.2632 18.082C20.6392 18.082 20.0406 18.3505 19.5283 18.8621L17.9253 20.4577C17.8382 20.4108 17.7511 20.3662 17.6655 20.3224L17.6653 20.3223L17.6649 20.322C17.621 20.2996 17.5776 20.2773 17.5347 20.2551L17.5347 20.255C17.3521 20.1639 17.1796 20.0778 17.0325 19.9866C15.531 19.0343 14.1664 17.7933 12.8576 16.1876C12.2235 15.3872 11.7974 14.7135 11.488 14.0297C11.8638 13.6865 12.2148 13.3308 12.5559 12.9852L12.6649 12.8748C12.7359 12.8039 12.8069 12.7317 12.8779 12.6595C12.9489 12.5874 13.0199 12.5152 13.091 12.4443C14.1562 11.3805 14.1562 10.0028 13.091 8.93903L11.7061 7.55618C11.5488 7.39916 11.3865 7.23706 11.2343 7.07497C10.93 6.76092 10.6104 6.43674 10.2807 6.13281C9.7886 5.64654 9.20016 5.38821 8.58128 5.38821C7.96241 5.38821 7.36382 5.64654 6.85655 6.13281L6.8464 6.14294L5.12166 7.88037C4.47235 8.52873 4.10204 9.31893 4.02087 10.2358C3.89913 11.7148 4.33538 13.0926 4.67019 13.9943C5.49197 16.2078 6.71958 18.2593 8.55085 20.4577C10.7727 23.1069 13.4461 25.1989 16.4999 26.6729C17.6666 27.225 19.2239 27.8784 20.9639 27.9899C21.0704 27.9949 21.182 28 21.2835 28C22.4553 28 23.4394 27.5796 24.2104 26.7438C24.212 26.7408 24.2139 26.7382 24.216 26.7359C24.2175 26.7342 24.219 26.7327 24.2206 26.7311C24.2244 26.7273 24.2282 26.7235 24.2307 26.7185C24.475 26.423 24.754 26.1536 25.0477 25.87L25.0477 25.87L25.1185 25.8016C25.3366 25.594 25.5598 25.3761 25.7779 25.1482C26.2801 24.6265 26.5439 24.0186 26.5439 23.3956C26.5439 22.7675 26.2751 22.1647 25.7627 21.6582L22.9778 18.8671ZM24.2906 24.7065L24.2906 24.7065L24.1749 24.819C23.8452 25.133 23.5104 25.4623 23.1959 25.832C22.6835 26.3791 22.0799 26.6374 21.2885 26.6374C21.2125 26.6374 21.1313 26.6374 21.0552 26.6324C19.5486 26.5361 18.1485 25.9485 17.0984 25.4471C14.2273 24.0591 11.7061 22.0887 9.61105 19.5915C7.88124 17.5096 6.72465 15.5848 5.95867 13.5181C5.4869 12.2568 5.31443 11.2742 5.39052 10.3472C5.44125 9.75455 5.66952 9.26321 6.09056 8.84278L7.82037 7.11549C8.06893 6.88249 8.33272 6.75585 8.59143 6.75585C8.91101 6.75585 9.16972 6.94834 9.33205 7.11043L9.34727 7.12563C9.65671 7.41435 9.95093 7.71321 10.2604 8.03233C10.3396 8.114 10.4201 8.19567 10.5013 8.27799L10.5014 8.27814C10.5813 8.35915 10.6618 8.44078 10.7423 8.52367L12.1271 9.90651C12.6649 10.4434 12.6649 10.9398 12.1271 11.4768C12.078 11.5259 12.0294 11.575 11.9809 11.6239L11.9808 11.624C11.8844 11.7214 11.7888 11.818 11.6909 11.9124C11.2648 12.348 10.859 12.7532 10.4176 13.1483C10.414 13.1519 10.4104 13.1549 10.4071 13.1577C10.4009 13.1627 10.3955 13.1671 10.3923 13.1737C9.956 13.6093 10.0372 14.0348 10.1285 14.3235L10.1437 14.3691C10.5039 15.2403 11.0111 16.0609 11.7822 17.0385L11.7873 17.0436C13.1873 18.7658 14.6635 20.1082 16.2919 21.1364C16.4999 21.2681 16.7129 21.3745 16.9158 21.4758L16.9159 21.4758L16.916 21.4759C17.0986 21.5671 17.271 21.6531 17.418 21.7443C17.4282 21.7493 17.4383 21.7557 17.4485 21.762C17.4586 21.7683 17.4688 21.7747 17.4789 21.7797C17.6514 21.8658 17.8137 21.9064 17.9811 21.9064C18.4021 21.9064 18.6659 21.643 18.7522 21.5569L20.487 19.8245C20.6595 19.6523 20.9334 19.4446 21.253 19.4446C21.5675 19.4446 21.8263 19.6421 21.9835 19.8144L21.9937 19.8245L24.7887 22.6155C25.3112 23.1322 25.3112 23.664 24.7938 24.201C24.6314 24.3757 24.4655 24.5367 24.2906 24.7065ZM16.9716 9.70897C18.3006 9.93184 19.5079 10.5599 20.4718 11.5224C21.4356 12.4848 22.0595 13.6903 22.2878 15.0175C22.3436 15.3518 22.6327 15.5848 22.9625 15.5848C22.999 15.5848 23.0313 15.5807 23.067 15.5762L23.0791 15.5747C23.4545 15.5139 23.7031 15.1593 23.6422 14.7845C23.3683 13.1787 22.6074 11.7149 21.4457 10.5549C20.2841 9.39491 18.818 8.63511 17.21 8.36158C16.8346 8.30079 16.4846 8.549 16.4186 8.91877C16.3527 9.28854 16.5962 9.64818 16.9716 9.70897Z"></path> </mask> <path fill-rule="evenodd" clip-rule="evenodd" d="M24.3727 7.62203C26.2903 9.53674 27.5382 11.9428 27.9896 14.5869C28.0556 14.9567 27.8019 15.3113 27.4316 15.367C27.4275 15.3675 27.4235 15.368 27.4195 15.3685C27.3838 15.373 27.3514 15.3771 27.3149 15.3771C26.9852 15.3771 26.6961 15.1441 26.6403 14.8098C26.2395 12.4493 25.1235 10.2965 23.4089 8.58445C21.6943 6.87742 19.5384 5.75798 17.1745 5.35781C16.7991 5.29196 16.5506 4.94245 16.6114 4.56762C16.6774 4.19784 17.0274 3.94458 17.3977 4.01043C20.0457 4.46124 22.4552 5.70732 24.3727 7.62203ZM22.9778 18.8671C22.4857 18.3555 21.8922 18.082 21.2632 18.082C20.6392 18.082 20.0406 18.3505 19.5283 18.8621L17.9253 20.4577C17.8382 20.4108 17.7511 20.3662 17.6655 20.3224L17.6653 20.3223L17.6649 20.322C17.621 20.2996 17.5776 20.2773 17.5347 20.2551L17.5347 20.255C17.3521 20.1639 17.1796 20.0778 17.0325 19.9866C15.531 19.0343 14.1664 17.7933 12.8576 16.1876C12.2235 15.3872 11.7974 14.7135 11.488 14.0297C11.8638 13.6865 12.2148 13.3308 12.5559 12.9852L12.6649 12.8748C12.7359 12.8039 12.8069 12.7317 12.8779 12.6595C12.9489 12.5874 13.0199 12.5152 13.091 12.4443C14.1562 11.3805 14.1562 10.0028 13.091 8.93903L11.7061 7.55618C11.5488 7.39916 11.3865 7.23706 11.2343 7.07497C10.93 6.76092 10.6104 6.43674 10.2807 6.13281C9.7886 5.64654 9.20016 5.38821 8.58128 5.38821C7.96241 5.38821 7.36382 5.64654 6.85655 6.13281L6.8464 6.14294L5.12166 7.88037C4.47235 8.52873 4.10204 9.31893 4.02087 10.2358C3.89913 11.7148 4.33538 13.0926 4.67019 13.9943C5.49197 16.2078 6.71958 18.2593 8.55085 20.4577C10.7727 23.1069 13.4461 25.1989 16.4999 26.6729C17.6666 27.225 19.2239 27.8784 20.9639 27.9899C21.0704 27.9949 21.182 28 21.2835 28C22.4553 28 23.4394 27.5796 24.2104 26.7438C24.212 26.7408 24.2139 26.7382 24.216 26.7359C24.2175 26.7342 24.219 26.7327 24.2206 26.7311C24.2244 26.7273 24.2282 26.7235 24.2307 26.7185C24.475 26.423 24.754 26.1536 25.0477 25.87L25.0477 25.87L25.1185 25.8016C25.3366 25.594 25.5598 25.3761 25.7779 25.1482C26.2801 24.6265 26.5439 24.0186 26.5439 23.3956C26.5439 22.7675 26.2751 22.1647 25.7627 21.6582L22.9778 18.8671ZM24.2906 24.7065L24.2906 24.7065L24.1749 24.819C23.8452 25.133 23.5104 25.4623 23.1959 25.832C22.6835 26.3791 22.0799 26.6374 21.2885 26.6374C21.2125 26.6374 21.1313 26.6374 21.0552 26.6324C19.5486 26.5361 18.1485 25.9485 17.0984 25.4471C14.2273 24.0591 11.7061 22.0887 9.61105 19.5915C7.88124 17.5096 6.72465 15.5848 5.95867 13.5181C5.4869 12.2568 5.31443 11.2742 5.39052 10.3472C5.44125 9.75455 5.66952 9.26321 6.09056 8.84278L7.82037 7.11549C8.06893 6.88249 8.33272 6.75585 8.59143 6.75585C8.91101 6.75585 9.16972 6.94834 9.33205 7.11043L9.34727 7.12563C9.65671 7.41435 9.95093 7.71321 10.2604 8.03233C10.3396 8.114 10.4201 8.19567 10.5013 8.27799L10.5014 8.27814C10.5813 8.35915 10.6618 8.44078 10.7423 8.52367L12.1271 9.90651C12.6649 10.4434 12.6649 10.9398 12.1271 11.4768C12.078 11.5259 12.0294 11.575 11.9809 11.6239L11.9808 11.624C11.8844 11.7214 11.7888 11.818 11.6909 11.9124C11.2648 12.348 10.859 12.7532 10.4176 13.1483C10.414 13.1519 10.4104 13.1549 10.4071 13.1577C10.4009 13.1627 10.3955 13.1671 10.3923 13.1737C9.956 13.6093 10.0372 14.0348 10.1285 14.3235L10.1437 14.3691C10.5039 15.2403 11.0111 16.0609 11.7822 17.0385L11.7873 17.0436C13.1873 18.7658 14.6635 20.1082 16.2919 21.1364C16.4999 21.2681 16.7129 21.3745 16.9158 21.4758L16.9159 21.4758L16.916 21.4759C17.0986 21.5671 17.271 21.6531 17.418 21.7443C17.4282 21.7493 17.4383 21.7557 17.4485 21.762C17.4586 21.7683 17.4688 21.7747 17.4789 21.7797C17.6514 21.8658 17.8137 21.9064 17.9811 21.9064C18.4021 21.9064 18.6659 21.643 18.7522 21.5569L20.487 19.8245C20.6595 19.6523 20.9334 19.4446 21.253 19.4446C21.5675 19.4446 21.8263 19.6421 21.9835 19.8144L21.9937 19.8245L24.7887 22.6155C25.3112 23.1322 25.3112 23.664 24.7938 24.201C24.6314 24.3757 24.4655 24.5367 24.2906 24.7065ZM16.9716 9.70897C18.3006 9.93184 19.5079 10.5599 20.4718 11.5224C21.4356 12.4848 22.0595 13.6903 22.2878 15.0175C22.3436 15.3518 22.6327 15.5848 22.9625 15.5848C22.999 15.5848 23.0313 15.5807 23.067 15.5762L23.0791 15.5747C23.4545 15.5139 23.7031 15.1593 23.6422 14.7845C23.3683 13.1787 22.6074 11.7149 21.4457 10.5549C20.2841 9.39491 18.818 8.63511 17.21 8.36158C16.8346 8.30079 16.4846 8.549 16.4186 8.91877C16.3527 9.28854 16.5962 9.64818 16.9716 9.70897Z" fill="#69D9E2"></path> <path d="M27.9896 14.5869L27.7925 14.6206L27.7927 14.622L27.9896 14.5869ZM24.3727 7.62203L24.2314 7.76356L24.3727 7.62203ZM27.4316 15.367L27.4564 15.5655L27.4614 15.5648L27.4316 15.367ZM27.4195 15.3685L27.3944 15.1701L27.3944 15.1701L27.4195 15.3685ZM26.6403 14.8098L26.8375 14.7769L26.8375 14.7763L26.6403 14.8098ZM23.4089 8.58445L23.5502 8.44293L23.55 8.44272L23.4089 8.58445ZM17.1745 5.35781L17.1399 5.55481L17.1411 5.55501L17.1745 5.35781ZM16.6114 4.56762L16.4145 4.5325L16.414 4.53556L16.6114 4.56762ZM17.3977 4.01043L17.3627 4.20734L17.3641 4.20759L17.3977 4.01043ZM22.9778 18.8671L22.8336 19.0058L22.8362 19.0084L22.9778 18.8671ZM19.5283 18.8621L19.6694 19.0038L19.6696 19.0036L19.5283 18.8621ZM17.9253 20.4577L17.8306 20.6338L17.9613 20.7041L18.0664 20.5994L17.9253 20.4577ZM17.6655 20.3224L17.5732 20.4998L17.5743 20.5004L17.6655 20.3224ZM17.6653 20.3223L17.7577 20.1449L17.7571 20.1446L17.6653 20.3223ZM17.6649 20.322L17.7567 20.1443L17.7561 20.144L17.6649 20.322ZM17.5347 20.2551L17.4354 20.4288L17.4425 20.4326L17.5347 20.2551ZM17.5347 20.255L17.6341 20.0811L17.624 20.0761L17.5347 20.255ZM17.0325 19.9866L16.9254 20.1555L16.9271 20.1566L17.0325 19.9866ZM12.8576 16.1876L12.7008 16.3118L12.7026 16.3139L12.8576 16.1876ZM11.488 14.0297L11.3531 13.882L11.2459 13.9799L11.3058 14.1122L11.488 14.0297ZM12.5559 12.9852L12.4136 12.8447L12.4135 12.8447L12.5559 12.9852ZM12.6649 12.8748L12.5235 12.7333L12.5225 12.7343L12.6649 12.8748ZM13.091 12.4443L13.2323 12.5858L13.2323 12.5858L13.091 12.4443ZM13.091 8.93903L13.2323 8.7975L13.091 8.93903ZM11.7061 7.55618L11.8474 7.41466V7.41466L11.7061 7.55618ZM11.2343 7.07497L11.3802 6.93806L11.378 6.93578L11.2343 7.07497ZM10.2807 6.13281L10.14 6.27515L10.1451 6.27987L10.2807 6.13281ZM6.85655 6.13281L6.71812 5.98841L6.71523 5.99129L6.85655 6.13281ZM6.8464 6.14294L6.70508 6.00142L6.70446 6.00204L6.8464 6.14294ZM5.12166 7.88037L5.26298 8.02189L5.2636 8.02127L5.12166 7.88037ZM4.02087 10.2358L3.82165 10.2181L3.82155 10.2194L4.02087 10.2358ZM4.67019 13.9943L4.85768 13.9247L4.85768 13.9246L4.67019 13.9943ZM8.55085 20.4577L8.39718 20.5857L8.39761 20.5862L8.55085 20.4577ZM16.4999 26.6729L16.4129 26.853L16.4143 26.8537L16.4999 26.6729ZM20.9639 27.9899L20.9511 28.1895L20.9544 28.1896L20.9639 27.9899ZM24.2104 26.7438L24.3574 26.8794L24.3766 26.8586L24.3893 26.8333L24.2104 26.7438ZM24.216 26.7359L24.365 26.8694L24.3651 26.8692L24.216 26.7359ZM24.2206 26.7311L24.0793 26.5896L24.0793 26.5896L24.2206 26.7311ZM24.2307 26.7185L24.0766 26.591L24.0621 26.6086L24.0519 26.6289L24.2307 26.7185ZM25.0477 25.87L24.9277 25.71L24.9177 25.7175L24.9088 25.7261L25.0477 25.87ZM25.0477 25.87L25.1677 26.03L25.1777 26.0225L25.1867 26.0138L25.0477 25.87ZM25.1185 25.8016L24.9806 25.6568L24.9795 25.6578L25.1185 25.8016ZM25.7779 25.1482L25.6338 25.0095L25.6334 25.0099L25.7779 25.1482ZM25.7627 21.6582L25.6211 21.7994L25.6221 21.8004L25.7627 21.6582ZM24.2906 24.7065L24.4301 24.8499L24.432 24.8479L24.2906 24.7065ZM24.2906 24.7065L24.1513 24.5629L24.1492 24.565L24.2906 24.7065ZM24.1749 24.819L24.3129 24.9638L24.3144 24.9623L24.1749 24.819ZM23.1959 25.832L23.342 25.9689L23.3482 25.9616L23.1959 25.832ZM21.0552 26.6324L21.0685 26.4328L21.0679 26.4328L21.0552 26.6324ZM17.0984 25.4471L17.0114 25.6271L17.0123 25.6275L17.0984 25.4471ZM9.61105 19.5915L9.45722 19.7193L9.45783 19.72L9.61105 19.5915ZM5.95867 13.5181L6.1462 13.4486L6.14599 13.4481L5.95867 13.5181ZM5.39052 10.3472L5.19125 10.3301L5.19119 10.3308L5.39052 10.3472ZM6.09056 8.84278L5.94924 8.70126L6.09056 8.84278ZM7.82037 7.11549L7.68352 6.96951L7.67905 6.97397L7.82037 7.11549ZM9.33205 7.11043L9.47337 6.96891L9.47337 6.96891L9.33205 7.11043ZM9.34727 7.12563L9.20587 7.26723L9.21083 7.27186L9.34727 7.12563ZM10.2604 8.03233L10.1168 8.17155L10.1168 8.17159L10.2604 8.03233ZM10.5013 8.27799L10.3589 8.41841L10.3592 8.41871L10.5013 8.27799ZM10.5014 8.27814L10.6439 8.13772L10.6436 8.13742L10.5014 8.27814ZM10.7423 8.52367L10.5988 8.66302L10.601 8.66519L10.7423 8.52367ZM12.1271 9.90651L11.9858 10.048L12.1271 9.90651ZM12.1271 11.4768L11.9858 11.3353L12.1271 11.4768ZM11.9809 11.6239L11.8388 11.4832L11.8387 11.4833L11.9809 11.6239ZM11.9808 11.624L12.1229 11.7647L12.1231 11.7646L11.9808 11.624ZM11.6909 11.9124L11.552 11.7684L11.5479 11.7725L11.6909 11.9124ZM10.4176 13.1483L10.284 12.9991L10.2763 13.0068L10.4176 13.1483ZM10.4071 13.1577L10.534 13.3122L10.534 13.3122L10.4071 13.1577ZM10.3923 13.1737L10.5336 13.3152L10.5566 13.2923L10.5711 13.2632L10.3923 13.1737ZM10.1285 14.3235L9.93776 14.3838L9.93877 14.3868L10.1285 14.3235ZM10.1437 14.3691L9.95352 14.4326L9.95886 14.4455L10.1437 14.3691ZM11.7822 17.0385L11.6252 17.1624L11.6325 17.1717L11.6409 17.1801L11.7822 17.0385ZM11.7873 17.0436L11.9425 16.9175L11.9359 16.9094L11.9286 16.9021L11.7873 17.0436ZM16.2919 21.1364L16.3989 20.9675L16.3987 20.9673L16.2919 21.1364ZM16.9158 21.4758L17.0053 21.2969L17.0052 21.2969L16.9158 21.4758ZM16.9159 21.4758L17.0087 21.2987L17.0053 21.297L16.9159 21.4758ZM16.916 21.4759L16.8232 21.6531L16.8267 21.6549L16.916 21.4759ZM17.418 21.7443L17.3127 21.9143L17.3205 21.9191L17.3287 21.9232L17.418 21.7443ZM17.4485 21.762L17.5544 21.5923L17.5544 21.5923L17.4485 21.762ZM17.4789 21.7797L17.5682 21.6008L17.5682 21.6008L17.4789 21.7797ZM18.7522 21.5569L18.6108 21.4153L18.6108 21.4153L18.7522 21.5569ZM20.487 19.8245L20.6284 19.966H20.6284L20.487 19.8245ZM21.9835 19.8144L21.8357 19.9494L21.8422 19.9559L21.9835 19.8144ZM21.9937 19.8245L22.135 19.683L22.135 19.683L21.9937 19.8245ZM24.7887 22.6155L24.6474 22.757L24.6481 22.7577L24.7887 22.6155ZM24.7938 24.201L24.6498 24.0622L24.6474 24.0648L24.7938 24.201ZM20.4718 11.5224L20.6131 11.3808L20.4718 11.5224ZM16.9716 9.70897L17.0046 9.51172L17.0035 9.51154L16.9716 9.70897ZM22.2878 15.0175L22.4851 14.9845L22.4849 14.9836L22.2878 15.0175ZM23.067 15.5762L23.042 15.3778L23.0419 15.3778L23.067 15.5762ZM23.0791 15.5747L23.1041 15.7732L23.1111 15.7721L23.0791 15.5747ZM23.6422 14.7845L23.8396 14.7524L23.8394 14.7508L23.6422 14.7845ZM21.4457 10.5549L21.3044 10.6964L21.4457 10.5549ZM17.21 8.36158L17.2435 8.1644L17.2419 8.16415L17.21 8.36158ZM16.4186 8.91877L16.2217 8.88365L16.4186 8.91877ZM28.1868 14.5533C27.7283 11.8679 26.4607 9.42427 24.5141 7.48051L24.2314 7.76356C26.1198 9.64921 27.348 12.0177 27.7925 14.6206L28.1868 14.5533ZM27.4614 15.5648C27.9436 15.4922 28.2721 15.0318 28.1865 14.5518L27.7927 14.622C27.839 14.8815 27.6603 15.1303 27.4019 15.1692L27.4614 15.5648ZM27.4446 15.5669C27.4486 15.5664 27.4525 15.5659 27.4564 15.5654L27.4068 15.1685C27.4026 15.1691 27.3984 15.1696 27.3944 15.1701L27.4446 15.5669ZM27.3149 15.5771C27.3659 15.5771 27.4103 15.5713 27.4446 15.5669L27.3944 15.1701C27.3574 15.1748 27.337 15.1771 27.3149 15.1771V15.5771ZM26.443 14.8427C26.5155 15.2768 26.8909 15.5771 27.3149 15.5771V15.1771C27.0796 15.1771 26.8767 15.0114 26.8375 14.7769L26.443 14.8427ZM23.2676 8.72598C24.9531 10.409 26.0494 12.5242 26.4431 14.8433L26.8375 14.7763C26.4297 12.3745 25.2939 10.1841 23.5502 8.44293L23.2676 8.72598ZM17.1411 5.55501C19.4636 5.94815 21.582 7.04784 23.2678 8.72619L23.55 8.44272C21.8066 6.707 19.6133 5.5678 17.2079 5.16062L17.1411 5.55501ZM16.414 4.53556C16.3356 5.01873 16.657 5.47009 17.14 5.55481L17.2091 5.16082C16.9412 5.11384 16.7656 4.86618 16.8088 4.59968L16.414 4.53556ZM17.4327 3.81351C16.9499 3.72765 16.4992 4.05791 16.4145 4.5325L16.8083 4.60273C16.8556 4.33778 17.1049 4.1615 17.3627 4.20734L17.4327 3.81351ZM24.5141 7.48051C22.5675 5.53675 20.1203 4.27107 17.4313 3.81326L17.3641 4.20759C19.971 4.65141 22.343 5.8779 24.2314 7.76356L24.5141 7.48051ZM21.2632 18.282C21.8301 18.282 22.3735 18.5274 22.8336 19.0058L23.1219 18.7285C22.5979 18.1837 21.9543 17.882 21.2632 17.882V18.282ZM19.6696 19.0036C20.1508 18.5231 20.7006 18.282 21.2632 18.282V17.882C20.5779 17.882 19.9305 18.1778 19.387 18.7206L19.6696 19.0036ZM18.0664 20.5994L19.6694 19.0038L19.3872 18.7203L17.7842 20.3159L18.0664 20.5994ZM17.5743 20.5004C17.6602 20.5444 17.7455 20.5881 17.8306 20.6338L18.02 20.2815C17.9309 20.2336 17.8421 20.1881 17.7567 20.1444L17.5743 20.5004ZM17.573 20.4997L17.5732 20.4998L17.7579 20.145L17.7577 20.1449L17.573 20.4997ZM17.5731 20.4997L17.5735 20.5L17.7571 20.1446L17.7567 20.1443L17.5731 20.4997ZM17.4425 20.4326C17.486 20.4551 17.5299 20.4776 17.5737 20.5L17.7561 20.144C17.7121 20.1215 17.6692 20.0995 17.6269 20.0776L17.4425 20.4326ZM17.4355 20.4287L17.4355 20.4287L17.6339 20.0814L17.6339 20.0814L17.4355 20.4287ZM16.9271 20.1566C17.0836 20.2535 17.2649 20.3439 17.4453 20.434L17.624 20.0761C17.4393 19.9839 17.2756 19.902 17.1379 19.8166L16.9271 20.1566ZM12.7026 16.3139C14.0228 17.9337 15.403 19.19 16.9254 20.1555L17.1396 19.8177C15.6589 18.8786 14.31 17.6529 13.0126 16.0612L12.7026 16.3139ZM11.3058 14.1122C11.6238 14.8149 12.0598 15.5026 12.7009 16.3118L13.0144 16.0634C12.3873 15.2719 11.9711 14.6122 11.6702 13.9473L11.3058 14.1122ZM12.4135 12.8447C12.0719 13.1909 11.7245 13.5429 11.3531 13.882L11.6228 14.1774C12.0031 13.8301 12.3577 13.4708 12.6982 13.1257L12.4135 12.8447ZM12.5225 12.7343L12.4136 12.8447L12.6982 13.1257L12.8072 13.0153L12.5225 12.7343ZM12.7353 12.5193C12.6642 12.5916 12.5938 12.6631 12.5235 12.7333L12.8062 13.0163C12.8779 12.9447 12.9496 12.8719 13.0205 12.7998L12.7353 12.5193ZM12.9496 12.3027C12.8779 12.3744 12.8063 12.4472 12.7353 12.5193L13.0205 12.7998C13.0916 12.7275 13.162 12.656 13.2323 12.5858L12.9496 12.3027ZM12.9496 9.08055C13.4512 9.58134 13.6899 10.1428 13.6899 10.6916C13.6899 11.2405 13.4512 11.8019 12.9496 12.3027L13.2323 12.5858C13.796 12.0228 14.0899 11.3636 14.0899 10.6916C14.0899 10.0197 13.796 9.36044 13.2323 8.7975L12.9496 9.08055ZM11.5648 7.69771L12.9496 9.08055L13.2323 8.7975L11.8474 7.41466L11.5648 7.69771ZM11.0885 7.21187C11.2433 7.37671 11.4079 7.5411 11.5648 7.69771L11.8474 7.41466C11.6897 7.25722 11.5297 7.09741 11.3801 6.93808L11.0885 7.21187ZM10.1451 6.27987C10.4705 6.57978 10.7868 6.9006 11.0907 7.21416L11.378 6.93578C11.0731 6.62123 10.7503 6.29369 10.4162 5.98575L10.1451 6.27987ZM8.58128 5.58821C9.14097 5.58821 9.68052 5.82091 10.1401 6.27507L10.4212 5.99056C9.89668 5.47217 9.25935 5.18821 8.58128 5.18821V5.58821ZM6.99495 6.27719C7.47042 5.8214 8.02105 5.58821 8.58128 5.58821V5.18821C7.90376 5.18821 7.25722 5.47167 6.71814 5.98844L6.99495 6.27719ZM6.98772 6.28447L6.99786 6.27434L6.71523 5.99129L6.70508 6.00142L6.98772 6.28447ZM5.2636 8.02127L6.98834 6.28385L6.70446 6.00204L4.97972 7.73946L5.2636 8.02127ZM4.22009 10.2534C4.29711 9.38345 4.64688 8.63709 5.26298 8.02189L4.98034 7.73884C4.29782 8.42037 3.90697 9.25441 3.82165 10.2181L4.22009 10.2534ZM4.85768 13.9246C4.52518 13.0292 4.1022 11.6857 4.2202 10.2522L3.82155 10.2194C3.69605 11.744 4.14559 13.156 4.4827 14.0639L4.85768 13.9246ZM8.70451 20.3297C6.88498 18.1454 5.6702 16.1133 4.85768 13.9247L4.48269 14.0639C5.31374 16.3024 6.55419 18.3732 8.39718 20.5857L8.70451 20.3297ZM16.5868 26.4928C13.5591 25.0313 10.9082 22.9571 8.70409 20.3291L8.39761 20.5862C10.6373 23.2566 13.333 25.3664 16.4129 26.853L16.5868 26.4928ZM20.9767 27.7903C19.2762 27.6814 17.7474 27.042 16.5854 26.4921L16.4143 26.8537C17.5858 27.408 19.1716 28.0755 20.9511 28.1895L20.9767 27.7903ZM21.2835 27.8C21.1875 27.8 21.0805 27.7952 20.9734 27.7901L20.9544 28.1896C21.0603 28.1947 21.1765 28.2 21.2835 28.2V27.8ZM24.0634 26.6082C23.3318 27.4013 22.4017 27.8 21.2835 27.8V28.2C22.5088 28.2 23.547 27.7579 24.3574 26.8794L24.0634 26.6082ZM24.0671 26.6024C24.058 26.6125 24.0438 26.6299 24.0316 26.6543L24.3893 26.8333C24.3801 26.8517 24.3698 26.8639 24.365 26.8694L24.0671 26.6024ZM24.0793 26.5896C24.0785 26.5904 24.0728 26.5959 24.067 26.6025L24.3651 26.8692C24.3633 26.8712 24.362 26.8725 24.3615 26.873C24.3612 26.8734 24.3609 26.8736 24.3619 26.8726L24.0793 26.5896ZM24.0519 26.6289C24.0597 26.6134 24.0682 26.6023 24.0736 26.596C24.0781 26.5906 24.0822 26.5867 24.0793 26.5896L24.3619 26.8727C24.3625 26.8721 24.3903 26.8466 24.4096 26.808L24.0519 26.6289ZM24.9088 25.7261C24.6166 26.0082 24.3292 26.2854 24.0766 26.591L24.3849 26.8459C24.6207 26.5606 24.8914 26.2989 25.1866 26.0139L24.9088 25.7261ZM24.9277 25.71L24.9277 25.71L25.1677 26.03L25.1677 26.03L24.9277 25.71ZM24.9795 25.6578L24.9088 25.7261L25.1867 26.0138L25.2574 25.9455L24.9795 25.6578ZM25.6334 25.0099C25.4183 25.2347 25.1976 25.4502 24.9806 25.6568L25.2564 25.9465C25.4756 25.7377 25.7013 25.5176 25.9224 25.2865L25.6334 25.0099ZM26.3439 23.3956C26.3439 23.9591 26.106 24.519 25.6338 25.0095L25.922 25.2869C26.4543 24.7339 26.7439 24.0782 26.7439 23.3956H26.3439ZM25.6221 21.8004C26.102 22.2748 26.3439 22.8283 26.3439 23.3956H26.7439C26.7439 22.7067 26.4481 22.0545 25.9033 21.5159L25.6221 21.8004ZM22.8362 19.0084L25.6211 21.7994L25.9043 21.5169L23.1193 18.7259L22.8362 19.0084ZM24.432 24.8479L24.4321 24.8479L24.1492 24.565L24.1492 24.565L24.432 24.8479ZM24.3144 24.9623L24.43 24.8499L24.1512 24.5631L24.0355 24.6756L24.3144 24.9623ZM23.3482 25.9616C23.6557 25.6001 23.9843 25.2767 24.3129 24.9638L24.037 24.6741C23.7061 24.9893 23.3651 25.3244 23.0436 25.7024L23.3482 25.9616ZM21.2885 26.8374C22.1328 26.8374 22.7901 26.5579 23.3419 25.9687L23.0499 25.6953C22.577 26.2002 22.027 26.4374 21.2885 26.4374V26.8374ZM21.0419 26.8319C21.1258 26.8375 21.2138 26.8374 21.2885 26.8374V26.4374C21.2111 26.4374 21.1368 26.4373 21.0685 26.4328L21.0419 26.8319ZM17.0123 25.6275C18.0668 26.1311 19.4957 26.7331 21.0424 26.8319L21.0679 26.4328C19.6014 26.3391 18.2302 25.7659 17.1846 25.2666L17.0123 25.6275ZM9.45783 19.72C11.5707 22.2385 14.1143 24.2267 17.0114 25.6271L17.1855 25.267C14.3403 23.8916 11.8415 21.939 9.76427 19.4629L9.45783 19.72ZM5.77113 13.5876C6.54652 15.6796 7.71609 17.6238 9.45722 19.7193L9.76488 19.4637C8.04639 17.3954 6.90279 15.4899 6.1462 13.4486L5.77113 13.5876ZM5.19119 10.3308C5.1119 11.2967 5.29326 12.31 5.77134 13.5882L6.14599 13.4481C5.68054 12.2037 5.51695 11.2516 5.58985 10.3636L5.19119 10.3308ZM5.94924 8.70126C5.49473 9.15511 5.24599 9.69057 5.19125 10.3301L5.58979 10.3643C5.6365 9.81853 5.84431 9.37131 6.23188 8.98431L5.94924 8.70126ZM7.67905 6.97397L5.94924 8.70126L6.23188 8.98431L7.96169 7.25702L7.67905 6.97397ZM8.59143 6.55585C8.26536 6.55585 7.95507 6.7151 7.68359 6.96958L7.95715 7.26141C8.1828 7.04988 8.40008 6.95585 8.59143 6.95585V6.55585ZM9.47337 6.96891C9.29857 6.79436 8.99116 6.55585 8.59143 6.55585V6.95585C8.83086 6.95585 9.04088 7.10232 9.19073 7.25195L9.47337 6.96891ZM9.48859 6.9841L9.47337 6.96891L9.19073 7.25195L9.20595 7.26715L9.48859 6.9841ZM10.4039 7.8931C10.0941 7.57359 9.79701 7.27172 9.48371 6.9794L9.21083 7.27186C9.5164 7.55698 9.80772 7.85283 10.1168 8.17155L10.4039 7.8931ZM10.6437 8.13758C10.5624 8.05516 10.4825 7.97406 10.4039 7.89306L10.1168 8.17159C10.1967 8.25394 10.2778 8.33619 10.3589 8.41841L10.6437 8.13758ZM10.6436 8.13742L10.6434 8.13728L10.3592 8.41871L10.3593 8.41885L10.6436 8.13742ZM10.8858 8.38433C10.8047 8.30082 10.7236 8.21865 10.6439 8.13772L10.359 8.41855C10.439 8.49965 10.5189 8.58075 10.5988 8.663L10.8858 8.38433ZM12.2685 9.76499L10.8836 8.38214L10.601 8.66519L11.9858 10.048L12.2685 9.76499ZM12.2685 11.6183C12.5563 11.3309 12.7304 11.0246 12.7304 10.6916C12.7304 10.3587 12.5563 10.0524 12.2685 9.76499L11.9858 10.048C12.2357 10.2975 12.3304 10.5079 12.3304 10.6916C12.3304 10.8754 12.2357 11.0858 11.9858 11.3353L12.2685 11.6183ZM12.1231 11.7646C12.1716 11.7156 12.2198 11.6669 12.2685 11.6183L11.9858 11.3353C11.9362 11.3848 11.8871 11.4344 11.8388 11.4832L12.1231 11.7646ZM12.1231 11.7646L12.1232 11.7645L11.8387 11.4833L11.8386 11.4834L12.1231 11.7646ZM11.8297 12.0564C11.9295 11.9601 12.0268 11.8618 12.1229 11.7647L11.8387 11.4833C11.742 11.581 11.648 11.6759 11.5521 11.7684L11.8297 12.0564ZM10.551 13.2974C10.9974 12.8977 11.407 12.4887 11.8339 12.0522L11.5479 11.7725C11.1226 12.2074 10.7205 12.6088 10.2842 12.9993L10.551 13.2974ZM10.534 13.3122C10.5368 13.3099 10.5475 13.3013 10.5589 13.2899L10.2763 13.0068C10.2787 13.0044 10.2805 13.0028 10.2813 13.0022C10.2818 13.0017 10.282 13.0015 10.2801 13.0031L10.534 13.3122ZM10.5711 13.2632C10.5608 13.2838 10.5486 13.2978 10.5409 13.3057C10.5348 13.3118 10.5293 13.3161 10.534 13.3122L10.2801 13.0031C10.2801 13.0032 10.2389 13.0332 10.2134 13.0841L10.5711 13.2632ZM10.3192 14.2632C10.2765 14.1281 10.2432 13.9817 10.2612 13.8267C10.2785 13.6771 10.3456 13.5029 10.5336 13.3152L10.2509 13.0321C10.0027 13.28 9.89217 13.5364 9.86386 13.7806C9.83617 14.0195 9.88919 14.2302 9.93778 14.3838L10.3192 14.2632ZM10.3334 14.3058L10.3182 14.2602L9.93877 14.3868L9.95398 14.4324L10.3334 14.3058ZM11.9392 16.9147C11.1757 15.9467 10.6796 15.142 10.3285 14.2927L9.95886 14.4455C10.3281 15.3387 10.8465 16.1752 11.6252 17.1624L11.9392 16.9147ZM11.9286 16.9021L11.9235 16.897L11.6409 17.1801L11.6459 17.1851L11.9286 16.9021ZM16.3987 20.9673C14.7913 19.9523 13.3309 18.6254 11.9425 16.9175L11.6321 17.1698C13.0437 18.9063 14.5358 20.264 16.1851 21.3055L16.3987 20.9673ZM17.0052 21.2969C16.8011 21.195 16.597 21.0929 16.3989 20.9675L16.1849 21.3054C16.4028 21.4434 16.6248 21.554 16.8265 21.6547L17.0052 21.2969ZM17.0053 21.297L17.0053 21.2969L16.8264 21.6547L16.8265 21.6547L17.0053 21.297ZM17.0088 21.2987L17.0087 21.2987L16.8231 21.653L16.8232 21.6531L17.0088 21.2987ZM17.5234 21.5743C17.367 21.4773 17.1858 21.387 17.0054 21.297L16.8267 21.6549C17.0114 21.7471 17.1749 21.8289 17.3127 21.9143L17.5234 21.5743ZM17.5544 21.5923C17.5459 21.587 17.5275 21.5754 17.5073 21.5653L17.3287 21.9232C17.328 21.9229 17.3286 21.9231 17.3312 21.9247C17.334 21.9263 17.3372 21.9283 17.3426 21.9317L17.5544 21.5923ZM17.5682 21.6008C17.5689 21.6011 17.5683 21.6009 17.5657 21.5993C17.5629 21.5977 17.5598 21.5957 17.5544 21.5923L17.3426 21.9317C17.351 21.937 17.3694 21.9486 17.3896 21.9587L17.5682 21.6008ZM17.9811 21.7064C17.8487 21.7064 17.7167 21.6749 17.5682 21.6008L17.3896 21.9587C17.586 22.0567 17.7787 22.1064 17.9811 22.1064V21.7064ZM18.6108 21.4153C18.5281 21.4979 18.3153 21.7064 17.9811 21.7064V22.1064C18.489 22.1064 18.8037 21.788 18.8935 21.6984L18.6108 21.4153ZM20.3457 19.683L18.6108 21.4153L18.8935 21.6984L20.6284 19.966L20.3457 19.683ZM21.253 19.2446C20.8505 19.2446 20.5272 19.5018 20.3457 19.683L20.6284 19.966C20.7919 19.8028 21.0164 19.6446 21.253 19.6446V19.2446ZM22.1312 19.6795C21.9592 19.4911 21.6507 19.2446 21.253 19.2446V19.6446C21.4844 19.6446 21.6933 19.7932 21.8358 19.9492L22.1312 19.6795ZM22.135 19.683L22.1248 19.6728L21.8422 19.9559L21.8523 19.966L22.135 19.683ZM24.9301 22.474L22.135 19.683L21.8523 19.966L24.6474 22.757L24.9301 22.474ZM24.9378 24.3398C25.2177 24.0493 25.382 23.7348 25.3812 23.4002C25.3804 23.0646 25.2137 22.7545 24.9294 22.4733L24.6481 22.7577C24.8862 22.9932 24.9808 23.2074 24.9812 23.4011C24.9817 23.5958 24.8873 23.8157 24.6498 24.0622L24.9378 24.3398ZM24.43 24.85C24.6043 24.6807 24.7738 24.5162 24.9403 24.3372L24.6474 24.0648C24.489 24.2351 24.3268 24.3926 24.1513 24.563L24.43 24.85ZM20.6131 11.3808C19.6204 10.3897 18.3755 9.74161 17.0046 9.51172L16.9385 9.90621C18.2257 10.1221 19.3954 10.7302 20.3304 11.6639L20.6131 11.3808ZM22.4849 14.9836C22.2496 13.6155 21.6061 12.3724 20.6131 11.3808L20.3304 11.6639C21.2651 12.5972 21.8695 13.7652 22.0907 15.0514L22.4849 14.9836ZM22.9625 15.3848C22.7271 15.3848 22.5242 15.2191 22.4851 14.9845L22.0905 15.0504C22.163 15.4845 22.5384 15.7848 22.9625 15.7848V15.3848ZM23.0419 15.3778C23.0049 15.3824 22.9845 15.3848 22.9625 15.3848V15.7848C23.0134 15.7848 23.0578 15.7789 23.0921 15.7746L23.0419 15.3778ZM23.0542 15.3762L23.042 15.3778L23.092 15.7746L23.1041 15.7731L23.0542 15.3762ZM23.4448 14.8165C23.4884 15.0852 23.3106 15.3346 23.0472 15.3772L23.1111 15.7721C23.5985 15.6932 23.9177 15.2334 23.8396 14.7524L23.4448 14.8165ZM21.3044 10.6964C22.437 11.8274 23.1782 13.2537 23.4451 14.8181L23.8394 14.7508C23.5584 13.1038 22.7777 11.6023 21.587 10.4134L21.3044 10.6964ZM17.1764 8.55875C18.7433 8.82527 20.1718 9.56544 21.3044 10.6964L21.587 10.4134C20.3963 9.22439 18.8928 8.44494 17.2435 8.16441L17.1764 8.55875ZM16.6155 8.95388C16.6621 8.69251 16.9095 8.51554 17.178 8.55901L17.2419 8.16415C16.7596 8.08605 16.307 8.40549 16.2217 8.88365L16.6155 8.95388ZM17.0035 9.51154C16.7426 9.46928 16.5684 9.21787 16.6155 8.95388L16.2217 8.88365C16.1369 9.35921 16.4498 9.82708 16.9396 9.90639L17.0035 9.51154Z" fill="#69D9E2" mask="url(#path-1-outside-1)"></path> </svg> 