<?xml version="1.0" encoding="UTF-8"?> <svg xmlns="http://www.w3.org/2000/svg" xmlns:xlink="http://www.w3.org/1999/xlink" width="151px" height="24px" viewBox="0 0 151 24"> <!-- Generator: Sketch 61.2 (89653) - https://sketch.com --> <title>Group</title> <desc>Created with Sketch.</desc> <g id="vozim.ru" stroke="none" stroke-width="1" fill="none" fill-rule="evenodd"> <g id="Desktop-HD" transform="translate(-139.000000, -28.000000)" fill-rule="nonzero"> <g id="Header"> <g id="Group" transform="translate(139.000000, 28.000000)"> <path d="M24,12 C24,18.6274044 18.6274181,24 11.9999693,24 C5.37258187,24 0,18.6274044 0,12 C0,5.37259564 5.37258187,0 11.9999693,0 C18.6273566,0 24,5.37259564 24,12" id="Path" fill="#FFA45B"></path> <path d="M51,12 C51,18.6274044 45.6274044,24 39,24 C32.3725956,24 27,18.6274044 27,12 C27,5.37259564 32.3725956,0 39,0 C45.6274044,0 51,5.37259564 51,12" id="Path" fill="#69D9E2"></path> <path d="M89.9848917,0.969842361 C91.6109798,0.950677445 93.1001059,1.19042199 94.4519038,1.68986944 C95.8037627,2.18956103 96.9692215,2.91953678 97.9490736,3.87936944 C98.9286205,4.83944624 99.6927146,5.99526152 100.241295,7.34718149 C100.789631,8.69910146 101.064288,10.2078808 101.064288,11.8729091 C101.064288,13.4993023 100.789631,14.9785408 100.241295,16.3105024 C99.6927146,17.6431964 98.9286205,18.7893072 97.9490736,19.7488957 C96.9692215,20.7091556 95.8037627,21.4586015 94.4519038,21.9971722 C93.1001059,22.5357429 91.6109798,22.8149159 89.9848917,22.8348133 C88.3782126,22.8348133 86.9037959,22.5749272 85.5620687,22.0560097 C84.2197312,21.5370922 83.064038,20.8022336 82.0942567,19.8519224 C81.1244143,18.9017943 80.3648977,17.7607494 79.8166835,16.4280554 C79.267981,15.0960938 78.9937518,13.6169163 78.9937518,11.990523 C78.9937518,10.3254947 79.267981,8.81201576 79.8166835,7.44996403 C80.3648977,6.08858367 81.1244143,4.92764147 82.0942567,3.96756467 C83.064038,3.00773201 84.2197312,2.26805174 85.5620687,1.74864592 C86.9037959,1.22978941 88.3782126,0.969842361 89.9848917,0.969842361 Z M63.8209373,1.49895271 L69.4928367,17.2215073 L75.3410044,1.49895271 L79.3378048,1.49895271 L70.9328909,22.3057029 L67.7294814,22.3057029 L59.5596124,1.49895271 L63.8209373,1.49895271 Z M117.750581,1.49895271 L117.750581,4.84915077 L106.553632,18.9555049 L117.926911,18.9555049 L117.926911,22.3057639 L102.027905,22.3057639 L102.027905,18.9555049 L113.136658,4.84915077 L102.204295,4.84915077 L102.204295,1.49895271 L117.750581,1.49895271 Z M124.489063,1.49895271 L124.489063,22.3057029 L120.786145,22.3057029 L120.786145,1.49895271 L124.489063,1.49895271 Z M134.248705,1.49895271 L139.803234,16.0753355 L145.416235,1.49895271 L151,1.49895271 L151,22.3057029 L147.47335,22.3057029 L147.47335,5.02554123 L147.414635,5.02554123 L141.096255,22.3057029 L138.510152,22.3057029 L132.191711,5.02554123 L132.132812,5.02554123 L132.132812,22.3057029 L128.606346,22.3057029 L128.606346,1.49895271 L134.248705,1.49895271 Z M90.0143104,4.32010146 C88.9366196,4.32010146 87.9617114,4.51126233 87.090196,4.89333994 C86.2182534,5.27529547 85.4687466,5.80434479 84.8420416,6.4801827 C84.2147874,7.15620372 83.7298052,7.94501698 83.3872781,8.84601213 C83.0442627,9.74731245 82.8729992,10.7170938 82.8729992,11.7553561 C82.8729992,12.8721091 83.0442627,13.9006669 83.3872781,14.8410295 C83.7298052,15.7816362 84.2147874,16.5947413 84.8420416,17.2802838 C85.4687466,17.9662534 86.2182534,18.5050683 87.090196,18.8967284 C87.9617114,19.2887546 88.9366196,19.4843711 90.0143104,19.4843711 C91.091574,19.4843711 92.071426,19.2887546 92.9531342,18.8967284 C93.8347813,18.5050683 94.5888048,17.9662534 95.215998,17.2802838 C95.8427639,16.5947413 96.3276241,15.7816362 96.6706395,14.8410295 C97.0133496,13.9006669 97.1850404,12.8721091 97.1850404,11.7553561 C97.1850404,10.7170938 97.0133496,9.74731245 96.6706395,8.84601213 C96.3276241,7.94501698 95.8427639,7.15620372 95.215998,6.4801827 C94.5888048,5.80434479 93.8347813,5.27529547 92.9531342,4.89333994 C92.071426,4.51126233 91.091574,4.32010146 90.0143104,4.32010146 Z" id="Combined-Shape" fill="#000000"></path> </g> </g> </g> </g> </svg> 